<?xml version="1.0" encoding="UTF-8"?>
<!-- Generated by Pixelmator Pro 3.5.9 -->
<svg width="4500" height="4500" viewBox="0 0 4500 4500" xmlns="http://www.w3.org/2000/svg">
    <g id="-1">
        <g id="g1">
            <linearGradient id="linearGradient1" x1="-93.966973" y1="4253.262025" x2="-93.966973" y2="-13.802237" gradientUnits="userSpaceOnUse">
                <stop offset="0" stop-color="#ffffff" stop-opacity="0.9"/>
                <stop offset="1" stop-color="#0000f9" stop-opacity="1"/>
            </linearGradient>
            <path id="path1" fill="url(#linearGradient1)" stroke="none" d="M 2482.013916 163.585449 L 2482.014893 163.585938 C 2759.574463 280.100586 2879.658203 577.111816 2750.230469 826.979004 L 1057.218994 4095.413818 C 927.790833 4345.280762 597.862061 4453.384277 320.302582 4336.870117 L 320.301605 4336.869141 C 42.742371 4220.353516 -77.341652 3923.342285 52.086571 3673.475098 L 1745.097778 405.040283 C 1874.526245 155.17334 2204.455078 47.069824 2482.013916 163.585449 Z"/>
            <path id="path2" fill="#00ffff" stroke="none" opacity="0.51" style="mix-blend-mode:screen" d="M 2482.013916 163.585449 L 2482.014893 163.585938 C 2759.574463 280.100586 2879.658203 577.111816 2750.230469 826.979004 L 1057.218994 4095.413818 C 927.790833 4345.280762 597.862061 4453.384277 320.302582 4336.870117 L 320.301605 4336.869141 C 42.742371 4220.353516 -77.341652 3923.342285 52.086571 3673.475098 L 1745.097778 405.040283 C 1874.526245 155.17334 2204.455078 47.069824 2482.013916 163.585449 Z"/>
            <linearGradient id="linearGradient2" x1="-91.918747" y1="3915.329975" x2="2337.090092" y2="-865.908688" gradientUnits="userSpaceOnUse">
                <stop offset="0" stop-color="#e7e7f7" stop-opacity="1"/>
                <stop offset="1" stop-color="#00c9f7" stop-opacity="1"/>
            </linearGradient>
            <path id="path3" fill="url(#linearGradient2)" stroke="none" d="M 2482.013916 163.585449 L 2482.014893 163.585938 C 2759.574463 280.100586 2879.658203 577.111816 2750.230469 826.979004 L 1057.218994 4095.413818 C 927.790833 4345.280762 597.862061 4453.384277 320.302582 4336.870117 L 320.301605 4336.869141 C 42.742371 4220.353516 -77.341652 3923.342285 52.086571 3673.475098 L 1745.097778 405.040283 C 1874.526245 155.17334 2204.455078 47.069824 2482.013916 163.585449 Z"/>
        </g>
        <g id="g2">
            <linearGradient id="linearGradient3" x1="2292.742483" y1="2374.966934" x2="2957.60868" y2="2658.842389" gradientUnits="userSpaceOnUse">
                <stop offset="0" stop-color="#00cfff" stop-opacity="0.9"/>
                <stop offset="1" stop-color="#0000f9" stop-opacity="1"/>
            </linearGradient>
            <path id="path4" fill="url(#linearGradient3)" stroke="none" d="M 2478.642578 2765.321289 C 2421.72876 2658.387695 2355.209229 2531.623047 2299.439697 2428.377197 C 2299.28418 2428.124756 2299.129883 2427.873047 2298.974854 2427.619385 C 2272.633301 2384.458008 2203.722412 2385.313721 2179.333008 2429.39502 C 2177.0354 2433.546875 2174.898193 2437.289063 2172.935303 2440.395508 C 2142.717285 2496.488037 2102.658691 2572.651855 2071.414307 2631.34668 C 1991.90332 2781.143555 1912.908325 2930.190186 1831.612427 3083.387939 C 1785.375366 3168.45752 1735.81958 3265.739502 1755.856934 3365.823242 C 1766.892456 3433.064209 1792.782715 3503.891357 1828.266235 3564.108398 C 2044.666748 3930.130615 2543.64209 3877.05835 2693.954834 3473.227295 C 2705.414551 3442.520508 2715.407959 3408.409424 2721.135254 3377.461182 C 2744.263916 3275.434082 2701.364258 3182.412598 2651.139893 3090.517822 C 2597.169189 2988.5271 2530.904297 2863.986572 2479.096924 2766.178467 L 2478.642578 2765.321289 Z"/>
            <linearGradient id="linearGradient4" x1="1747.127149" y1="2367.832832" x2="2731.72711" y2="2367.832832" gradientUnits="userSpaceOnUse">
                <stop offset="0" stop-color="#cce0f4" stop-opacity="1"/>
                <stop offset="0.567416" stop-color="#1e9cd7" stop-opacity="1"/>
                <stop offset="0.865168" stop-color="#0075be" stop-opacity="1"/>
                <stop offset="0.994382" stop-color="#005b97" stop-opacity="1"/>
            </linearGradient>
            <path id="path5" fill="none" stroke="url(#linearGradient4)" stroke-width="8.312667" opacity="0.49" style="mix-blend-mode:screen" d="M 2478.642578 2765.321289 C 2421.72876 2658.387695 2355.209229 2531.623047 2299.439697 2428.377197 C 2299.28418 2428.124756 2299.129883 2427.873047 2298.974854 2427.619385 C 2272.633301 2384.458008 2203.722412 2385.313721 2179.333008 2429.39502 C 2177.0354 2433.546875 2174.898193 2437.289063 2172.935303 2440.395508 C 2142.717285 2496.488037 2102.658691 2572.651855 2071.414307 2631.34668 C 1991.90332 2781.143555 1912.908325 2930.190186 1831.612427 3083.387939 C 1785.375366 3168.45752 1735.81958 3265.739502 1755.856934 3365.823242 C 1766.892456 3433.064209 1792.782715 3503.891357 1828.266235 3564.108398 C 2044.666748 3930.130615 2543.64209 3877.05835 2693.954834 3473.227295 C 2705.414551 3442.520508 2715.407959 3408.409424 2721.135254 3377.461182 C 2744.263916 3275.434082 2701.364258 3182.412598 2651.139893 3090.517822 C 2597.169189 2988.5271 2530.904297 2863.986572 2479.096924 2766.178467 L 2478.642578 2765.321289 Z"/>
        </g>
        <g id="g3">
            <linearGradient id="linearGradient5" x1="2489.315492" y1="-114.17346" x2="4841.487824" y2="3959.908527" gradientUnits="userSpaceOnUse">
                <stop offset="0" stop-color="#00cfff" stop-opacity="0.9"/>
                <stop offset="1" stop-color="#0000f9" stop-opacity="1"/>
            </linearGradient>
            <path id="path6" fill="url(#linearGradient5)" stroke="none" d="M 2017.987915 163.328125 L 2017.988892 163.327637 C 2295.548828 46.812012 2625.477051 154.916016 2754.905273 404.782959 L 4447.913574 3673.219238 C 4577.341797 3923.086426 4457.257324 4220.098145 4179.698242 4336.613281 L 4179.697266 4336.613281 C 3902.137695 4453.128418 3572.208984 4345.024414 3442.78125 4095.157227 L 1749.772461 826.721436 C 1620.344482 576.854248 1740.428467 279.843262 2017.987915 163.328125 Z"/>
            <linearGradient id="linearGradient6" x1="1603.718999" y1="4383.503043" x2="1603.718999" y2="116.437651" gradientUnits="userSpaceOnUse">
                <stop offset="0" stop-color="#0e0e0e" stop-opacity="1"/>
                <stop offset="0.5" stop-color="#000000" stop-opacity="1"/>
                <stop offset="1" stop-color="#0e0e0e" stop-opacity="1"/>
            </linearGradient>
            <path id="path7" fill="url(#linearGradient6)" stroke="none" opacity="0.51" style="mix-blend-mode:screen" d="M 2017.987915 163.328125 L 2017.988892 163.327637 C 2295.548828 46.812012 2625.477051 154.916016 2754.905273 404.782959 L 4447.913574 3673.219238 C 4577.341797 3923.086426 4457.257324 4220.098145 4179.698242 4336.613281 L 4179.697266 4336.613281 C 3902.137695 4453.128418 3572.208984 4345.024414 3442.78125 4095.157227 L 1749.772461 826.721436 C 1620.344482 576.854248 1740.428467 279.843262 2017.987915 163.328125 Z"/>
            <linearGradient id="linearGradient7" x1="4593.966935" y1="116.437651" x2="4593.966935" y2="4383.503043" gradientUnits="userSpaceOnUse">
                <stop offset="0" stop-color="#ffffff" stop-opacity="0.77"/>
                <stop offset="0.203297" stop-color="#ffffff" stop-opacity="0.65"/>
                <stop offset="0.346154" stop-color="#ffffff" stop-opacity="0.65"/>
                <stop offset="0.510989" stop-color="#ffffff" stop-opacity="0"/>
                <stop offset="1" stop-color="#1b1b1b" stop-opacity="0.16"/>
            </linearGradient>
            <path id="path8" fill="url(#linearGradient7)" stroke="none" opacity="0.7" style="mix-blend-mode:screen" d="M 2017.987915 163.328125 L 2017.988892 163.327637 C 2295.548828 46.812012 2625.477051 154.916016 2754.905273 404.782959 L 4447.913574 3673.219238 C 4577.341797 3923.086426 4457.257324 4220.098145 4179.698242 4336.613281 L 4179.697266 4336.613281 C 3902.137695 4453.128418 3572.208984 4345.024414 3442.78125 4095.157227 L 1749.772461 826.721436 C 1620.344482 576.854248 1740.428467 279.843262 2017.987915 163.328125 Z"/>
        </g>
        <g id="g4">
            <linearGradient id="linearGradient8" x1="-279.090811" y1="2170.048295" x2="2116.042263" y2="1275.569585" gradientUnits="userSpaceOnUse">
                <stop offset="0" stop-color="#e7e7f7" stop-opacity="1"/>
                <stop offset="1" stop-color="#00c9f7" stop-opacity="1"/>
            </linearGradient>
            <path id="path9" fill="url(#linearGradient8)" stroke="none" d="M 1695.1073 1685.800049 L 1695.108521 1685.800537 C 1972.66748 1802.31543 2092.751709 2099.32666 1963.323608 2349.193604 L 1462.376587 3316.295166 C 1332.948364 3566.162354 1003.019836 3674.265625 725.460083 3557.750244 L 725.459106 3557.750244 C 447.899902 3441.234863 327.815887 3144.223145 457.244354 2894.355957 L 958.191345 1927.254883 C 1087.619263 1677.387695 1417.548096 1569.284424 1695.1073 1685.800049 Z"/>
            <linearGradient id="linearGradient9" x1="280.467468" y1="1552.659469" x2="2140.100196" y2="1552.659469" gradientUnits="userSpaceOnUse">
                <stop offset="0" stop-color="#cce0f4" stop-opacity="1"/>
                <stop offset="0.567416" stop-color="#1e9cd7" stop-opacity="1"/>
                <stop offset="0.865168" stop-color="#0075be" stop-opacity="1"/>
                <stop offset="0.994382" stop-color="#005b97" stop-opacity="1"/>
            </linearGradient>
            <path id="path10" fill="none" stroke="url(#linearGradient9)" stroke-width="249.38002" opacity="0.49" style="mix-blend-mode:screen" d="M 1695.1073 1685.800049 L 1695.108521 1685.800537 C 1972.66748 1802.31543 2092.751709 2099.32666 1963.323608 2349.193604 L 1462.376587 3316.295166 C 1332.948364 3566.162354 1003.019836 3674.265625 725.460083 3557.750244 L 725.459106 3557.750244 C 447.899902 3441.234863 327.815887 3144.223145 457.244354 2894.355957 L 958.191345 1927.254883 C 1087.619263 1677.387695 1417.548096 1569.284424 1695.1073 1685.800049 Z"/>
        </g>
        <g id="g5">
            <linearGradient id="linearGradient10" x1="1974.330663" y1="567.447391" x2="3958.105422" y2="567.447391" gradientUnits="userSpaceOnUse">
                <stop offset="0" stop-color="#00cfff" stop-opacity="0.9"/>
                <stop offset="1" stop-color="#0000f9" stop-opacity="1"/>
            </linearGradient>
            <path id="path11" fill="url(#linearGradient10)" stroke="none" d="M 2294.632813 700.588135 L 2294.634033 700.587646 C 2572.193604 584.072754 2902.121826 692.176025 3031.550049 942.043457 L 3906.018799 2630.249268 C 4035.447021 2880.116211 3915.362549 3177.127441 3637.803711 3293.642578 L 3637.802246 3293.642578 C 3360.242676 3410.157715 3030.313965 3302.054443 2900.88623 3052.1875 L 2026.417236 1363.981445 C 1896.989014 1114.114258 2017.073242 817.102783 2294.632813 700.588135 Z"/>
            <linearGradient id="linearGradient11" x1="1895.360326" y1="567.447391" x2="4037.07576" y2="567.447391" gradientUnits="userSpaceOnUse">
                <stop offset="0" stop-color="#cce0f4" stop-opacity="1"/>
                <stop offset="0.567416" stop-color="#1e9cd7" stop-opacity="1"/>
                <stop offset="0.865168" stop-color="#0075be" stop-opacity="1"/>
                <stop offset="0.994382" stop-color="#005b97" stop-opacity="1"/>
            </linearGradient>
            <path id="path12" fill="none" stroke="url(#linearGradient11)" stroke-width="157.940674" opacity="0.49" style="mix-blend-mode:screen" d="M 2294.632813 700.588135 L 2294.634033 700.587646 C 2572.193604 584.072754 2902.121826 692.176025 3031.550049 942.043457 L 3906.018799 2630.249268 C 4035.447021 2880.116211 3915.362549 3177.127441 3637.803711 3293.642578 L 3637.802246 3293.642578 C 3360.242676 3410.157715 3030.313965 3302.054443 2900.88623 3052.1875 L 2026.417236 1363.981445 C 1896.989014 1114.114258 2017.073242 817.102783 2294.632813 700.588135 Z"/>
        </g>
    </g>
</svg>
