<svg width="31" height="31" viewBox="0 0 31 31" fill="none" xmlns="http://www.w3.org/2000/svg">
<g clip-path="url(#clip0_3_198)">
<path d="M0 14.88C0 7.86548 0 4.35825 2.17913 2.17913C4.35825 0 7.86548 0 14.88 0H16.12C23.1345 0 26.6417 0 28.8209 2.17913C31 4.35825 31 7.86548 31 14.88V16.12C31 23.1345 31 26.6417 28.8209 28.8209C26.6417 31 23.1345 31 16.12 31H14.88C7.86548 31 4.35825 31 2.17913 28.8209C0 26.6417 0 23.1345 0 16.12V14.88Z" fill="#0077FF"/>
<path d="M16.4946 22.333C9.42917 22.333 5.39923 17.4892 5.23131 9.42923H8.77048C8.88673 15.3451 11.4958 17.8509 13.5625 18.3676V9.42923H16.8951V14.5313C18.936 14.3117 21.0799 11.9867 21.8032 9.42923H25.1358C24.5804 12.5809 22.2554 14.9059 20.602 15.8617C22.2554 16.6367 24.9034 18.6646 25.9109 22.333H22.2424C21.4545 19.8788 19.4914 17.9801 16.8951 17.7217V22.333H16.4946Z" fill="white"/>
</g>
<defs>
<clipPath id="clip0_3_198">
<rect width="31" height="31" fill="white"/>
</clipPath>
</defs>
</svg>
