<svg width="31" height="28" viewBox="0 0 31 28" fill="none" xmlns="http://www.w3.org/2000/svg">
<path d="M25.9674 26.4188H4.73946C3.06462 26.4188 1.70689 25.0611 1.70689 23.3862V9.73967C1.70689 8.06483 3.06462 6.7071 4.73946 6.7071H25.9674C27.6423 6.7071 29 8.06483 29 9.73967V23.3862C29 25.0611 27.6423 26.4188 25.9674 26.4188Z" stroke="#003E83" stroke-width="3"/>
<path d="M22.1767 17.3211C21.7581 17.3211 21.4186 16.9816 21.4186 16.5629C21.4186 16.1443 21.7581 15.8048 22.1767 15.8048C22.5954 15.8048 22.9349 16.1443 22.9349 16.5629C22.9349 16.9816 22.5954 17.3211 22.1767 17.3211Z" fill="#003E83" stroke="#003E83" stroke-width="3" stroke-linecap="round" stroke-linejoin="round"/>
<path d="M24.4512 6.7071V4.58918C24.4512 2.5967 22.5625 1.14563 20.6372 1.65901L3.95808 6.10679C2.63057 6.46079 1.70689 7.66306 1.70689 9.03696V9.73967" stroke="#003E83" stroke-width="3"/>
</svg>
